<svg width="1440" height="1080" viewBox="0 0 1440 1080" fill="none" xmlns="http://www.w3.org/2000/svg">
  <rect width="1440" height="1080" rx="72" fill="#1A1512"/>
  <rect x="64" y="64" width="1312" height="952" rx="52" fill="#221C18"/>
  <rect x="96" y="96" width="1248" height="96" rx="32" fill="#171311"/>
  <circle cx="150" cy="144" r="11" fill="#5C4C42"/>
  <circle cx="184" cy="144" r="11" fill="#5C4C42"/>
  <circle cx="218" cy="144" r="11" fill="#5C4C42"/>
  <rect x="1110" y="116" width="90" height="56" rx="28" fill="#F7E0D4"/>
  <rect x="1214" y="116" width="90" height="56" rx="28" fill="#3B312B"/>
  <text x="1138" y="151" fill="#171311" font-family="SF Pro Display, PingFang SC, sans-serif" font-size="24" font-weight="700">消息</text>
  <text x="1244" y="151" fill="#FFFFFF" font-family="SF Pro Display, PingFang SC, sans-serif" font-size="24" font-weight="700">订单</text>

  <rect x="96" y="228" width="322" height="724" rx="40" fill="#171311"/>
  <text x="144" y="314" fill="#FFFFFF" font-family="SF Pro Display, PingFang SC, sans-serif" font-size="48" font-weight="700">ASM</text>
  <text x="144" y="370" fill="#FFFFFF" font-family="SF Pro Display, PingFang SC, sans-serif" font-size="48" font-weight="700">Assistant</text>
  <text x="144" y="446" fill="#B9ABA0" font-family="SF Pro Display, PingFang SC, sans-serif" font-size="28" font-weight="600">先把高频动作做快</text>
  <rect x="144" y="510" width="226" height="60" rx="30" fill="#2A231F"/>
  <text x="182" y="549" fill="#F7E0D4" font-family="SF Pro Display, PingFang SC, sans-serif" font-size="24" font-weight="700">Live Module</text>
  <rect x="144" y="816" width="226" height="72" rx="24" fill="#2A231F"/>
  <text x="182" y="860" fill="#FFFFFF" font-family="SF Pro Display, PingFang SC, sans-serif" font-size="28" font-weight="700">一机一码</text>

  <rect x="458" y="228" width="402" height="336" rx="36" fill="#FFF8F2"/>
  <text x="504" y="306" fill="#9D4C2A" font-family="SF Pro Display, PingFang SC, sans-serif" font-size="24" font-weight="700">Message</text>
  <text x="504" y="388" fill="#171311" font-family="SF Pro Display, PingFang SC, sans-serif" font-size="52" font-weight="700">识别待回复</text>
  <text x="504" y="442" fill="#574F47" font-family="SF Pro Display, PingFang SC, sans-serif" font-size="26" font-weight="600">读取上下文，生成建议回复</text>
  <rect x="504" y="480" width="248" height="16" rx="8" fill="#E7D6CA"/>

  <rect x="458" y="596" width="402" height="356" rx="36" fill="#F3E6DC"/>
  <text x="504" y="674" fill="#9D4C2A" font-family="SF Pro Display, PingFang SC, sans-serif" font-size="24" font-weight="700">Pricing</text>
  <text x="504" y="756" fill="#171311" font-family="SF Pro Display, PingFang SC, sans-serif" font-size="52" font-weight="700">定价支持</text>
  <text x="504" y="810" fill="#574F47" font-family="SF Pro Display, PingFang SC, sans-serif" font-size="26" font-weight="600">拆解竞对，快速测算售价</text>
  <rect x="504" y="848" width="280" height="16" rx="8" fill="#C7683C" fill-opacity="0.16"/>

  <rect x="900" y="228" width="444" height="724" rx="36" fill="#2A231F"/>
  <text x="948" y="306" fill="#F7E0D4" font-family="SF Pro Display, PingFang SC, sans-serif" font-size="24" font-weight="700">Order Sync</text>
  <rect x="948" y="344" width="348" height="118" rx="24" fill="#352C27"/>
  <text x="986" y="396" fill="#FFFFFF" font-family="SF Pro Display, PingFang SC, sans-serif" font-size="28" font-weight="700">WhimsicalKK</text>
  <text x="986" y="438" fill="#B9ABA0" font-family="SF Pro Display, PingFang SC, sans-serif" font-size="22" font-weight="600">识别新单 · 去重后同步</text>
  <rect x="948" y="492" width="348" height="118" rx="24" fill="#352C27"/>
  <text x="986" y="544" fill="#FFFFFF" font-family="SF Pro Display, PingFang SC, sans-serif" font-size="28" font-weight="700">OccultEphemera</text>
  <text x="986" y="586" fill="#B9ABA0" font-family="SF Pro Display, PingFang SC, sans-serif" font-size="22" font-weight="600">按店铺隔离统计</text>
  <rect x="948" y="640" width="348" height="118" rx="24" fill="#352C27"/>
  <text x="986" y="692" fill="#FFFFFF" font-family="SF Pro Display, PingFang SC, sans-serif" font-size="28" font-weight="700">Status</text>
  <text x="986" y="734" fill="#B9ABA0" font-family="SF Pro Display, PingFang SC, sans-serif" font-size="22" font-weight="600">3 个模块已上线</text>
</svg>
